<?xml version="1.0" standalone="no"?><!DOCTYPE svg PUBLIC "-//W3C//DTD SVG 1.1//EN" "http://www.w3.org/Graphics/SVG/1.1/DTD/svg11.dtd"><svg t="1719368554119" class="icon" viewBox="0 0 1024 1024" version="1.1" xmlns="http://www.w3.org/2000/svg" p-id="1506" xmlns:xlink="http://www.w3.org/1999/xlink" width="200" height="200"><path d="M511.232 0c55.765333 0 100.906667 45.973333 100.906667 102.698667l-0.448 8.362666c44.437333 18.005333 87.402667 47.914667 125.482666 87.552 44.138667 45.717333 69.952 106.325333 77.866667 184.106667v280.469333l60.992 107.413334c20.48 34.112 27.029333 62.677333 11.050667 87.402666-14.634667 22.592-40.789333 30.464-76.288 29.866667h-136.704C658.133333 965.610667 590.442667 1024 509.44 1024s-148.736-58.368-164.650667-136.106667H193.429333l-2.858666-0.128c-32.106667-2.773333-56.021333-18.282667-61.397334-48.128-3.626667-20.330667 1.173333-42.154667 13.717334-68.16l62.72-111.616 0.170666-280.213333c5.461333-61.952 28.672-119.658667 69.013334-172.586667 34.133333-44.8 82.944-77.781333 135.893333-96.768a106.666667 106.666667 0 0 1-0.32-7.594666C410.368 45.973333 455.530667 0 511.232 0m93.077333 887.893333h-189.738666c14.08 39.445333 51.2 67.605333 94.869333 67.605334 43.626667 0 80.789333-28.16 94.869333-67.584m-88.106666-727.957334c-69.333333 0-145.557333 33.024-188.266667 89.088-32.661333 42.794667-50.901333 88.149333-55.04 133.632v286.208c0 5.973333-1.536 11.861333-4.458667 17.045334l-66.090666 117.546666q-4.608 9.728-6.144 15.936H811.306667c6.186667 0.085333 10.922667-0.170667 14.144-0.256a149.333333 149.333333 0 0 0-7.232-13.568l-65.877334-116.074666a36.266667 36.266667 0 0 1-4.522666-17.152l0.170666-286.016c-6.186667-59.477333-25.92-105.664-58.837333-139.861334-53.248-55.296-115.818667-86.528-172.949333-86.528m-4.970667-91.52a33.792 33.792 0 0 0-32.512 25.472q18.901333-2.410667 37.482667-2.410666 13.610667 0 27.392 1.642666a33.792 33.792 0 0 0-32.362667-24.682666" p-id="1507"></path></svg>