<?xml version="1.0" standalone="no"?><!DOCTYPE svg PUBLIC "-//W3C//DTD SVG 1.1//EN" "http://www.w3.org/Graphics/SVG/1.1/DTD/svg11.dtd"><svg class="icon" width="200px" height="200.00px" viewBox="0 0 1024 1024" version="1.1" xmlns="http://www.w3.org/2000/svg"><path d="M291.48 665.57c47.75 68.871 59.297 143.508 25.841 166.707-33.448 23.184-99.297-13.828-147.048-82.701-47.752-68.852-59.289-143.496-25.857-166.682 33.473-23.195 99.305 13.817 147.064 82.676z" fill="#F08C3D" /><path d="M293.474 862.52c-44.524 0-100.402-39.115-142.37-99.654-56.864-81.988-65.457-167.605-19.988-199.143 10.618-7.355 23.119-11.078 37.164-11.078 44.509 0 100.395 39.104 142.371 99.629 56.863 82.016 65.447 167.641 19.963 199.174-10.594 7.347-23.094 11.072-37.14 11.072zM168.279 599.301c-4.437 0-7.888 0.906-10.578 2.762-16.881 11.711-12.917 69.822 31.743 134.217 36.218 52.248 79.748 79.58 104.029 79.58 4.428 0 7.88-0.9 10.563-2.758 16.889-11.711 12.924-69.828-31.729-134.238-36.225-52.231-79.756-79.563-104.028-79.563z" fill="#353533" /><path d="M746.229 662.41c55.174-74.701 124.863-116.75 155.744-93.963 30.844 22.777 11.219 101.828-43.955 176.521-55.135 74.688-124.891 116.758-155.744 93.982-30.854-22.811-11.196-101.85 43.955-176.54z" fill="#F08C3D" /><path d="M722.924 868.465c-13.235 0-24.846-3.611-34.506-10.742-49.006-36.24-17.455-132.654 39.04-209.168 49.19-66.6 109.578-109.631 153.847-109.631 13.236 0 24.856 3.613 34.521 10.748 13.34 9.852 33.539 35.047 19.066 93.201-9.017 36.258-29.66 77.443-58.113 115.955-49.16 66.598-109.547 109.637-153.855 109.637zM881.305 585.58c-23.912 0-72.807 31.787-116.314 90.689-53.342 72.246-61.939 134.246-48.848 143.924 1.449 1.068 3.732 1.615 6.781 1.615 23.938 0 72.842-31.789 116.322-90.693 24.545-33.229 42.908-69.492 50.369-99.506 6.256-25.127 3.605-40.629-1.495-44.396-1.466-1.08-3.757-1.633-6.815-1.633z" fill="#353533" /><path d="M130.177 445.444c-39.396 44.367-52.771 88.22-8.439 127.607l108.427 77.396c50.608 30.635 100.016 52.092 139.416 7.742 39.445-44.385 18.459-88.512-22.99-134.834l-87.229-96.462c-44.335-39.394-89.778-25.801-129.185 18.551z" fill="#F08C3D" /><path d="M316.832 706.787c-33.967-0.006-67.538-17.49-98.752-36.385l-1.474-0.969-110.364-78.939c-34.697-30.83-61.741-83.707 6.494-160.542 29.269-32.951 60.396-49.656 92.506-49.656 24.416 0 47.84 9.809 69.613 29.16l1.811 1.791 87.229 96.461c23.471 26.234 85.604 95.669 23.127 165.982-19.508 21.958-43.13 33.097-70.19 33.097zM243 630.945c24.023 14.506 51.482 29.18 73.832 29.184 13.525 0 24.744-5.537 35.307-17.43 21.518-24.211 25.186-50.016-22.926-103.785l-86.26-95.38c-12.67-11-25.354-16.58-37.711-16.58-22.67 0-43.851 18.482-57.623 33.984-44.707 50.338-32.143 74.978-11.275 93.878L243 630.945z" fill="#353533" /><path d="M246.461 245.061c-67.25 41.727-101.069 92.744-59.314 160.014l109.211 140.281c53.115 58.391 108.131 104.625 175.387 62.902 67.283-41.729 57.311-106.236 21.9-181.228L418.74 270.481c-41.705-67.25-105.015-67.135-172.279-25.42z" fill="#F08C3D" /><path d="M420.084 647.641h-0.006c-54.685-0.004-100.074-41.621-140.979-86.59l-1.153-1.365-110.62-142.31c-23.992-38.65-28.275-76.098-12.74-111.305 12.861-29.148 38.894-55.59 79.572-80.834 34.475-21.377 67.277-32.213 97.496-32.213 30.342 0 73.514 11.309 106.912 65.164l1.219 2.223 74.904 156.549c19.228 40.723 70.164 148.601-30.654 211.121-20.916 12.978-42.433 19.56-63.951 19.56zM314.215 530.314c33.519 36.791 69.523 70.664 105.863 70.668h0.006c12.879 0 25.746-4.104 39.359-12.549 39.279-24.363 56.543-59.441 13.109-151.443l-74.289-155.252c-17.865-28.295-39.664-42.057-66.609-42.057-21.404 0-45.932 8.48-72.902 25.205-31.977 19.842-52.659 40.039-61.477 60.021-9.072 20.553-6.199 41.818 9.064 66.846l107.876 138.561z" fill="#353533" /><path d="M892.363 458.637c-38.333-45.281-79.838-64.754-125.131-26.436l-91.969 96.351c-37.518 45.77-65.762 91.633-27.445 136.904 38.35 45.33 84.997 30.828 136.743-3.635l107.841-72.686c45.293-38.285 38.27-85.189-0.039-130.498z" fill="#F08C3D" /><path d="M703.625 717.268h-0.007c-28.22 0-52.987-12.363-73.608-36.742-55.614-65.709 0.321-133.959 27.203-166.76l1.17-1.32 93.779-98.053c20.347-17.213 41.784-25.938 63.727-25.938 32.047 0 62.886 18.025 94.275 55.105 23.407 27.684 35.812 55.277 36.877 82.029 0.848 21.139-5.343 52.418-39.576 81.359l-2.025 1.529-107.841 72.693c-37.013 24.65-66.841 36.098-93.974 36.098z m-10.873-173.252c-43.012 52.635-49.841 79.531-27.121 106.373 15.324 18.129 29.026 20.221 37.994 20.221 17.266 0 39.504-9.223 68.004-28.203l106.633-71.873c15.527-13.426 22.781-27.531 22.156-43.086-0.632-15.89-9.576-34.478-25.873-53.75-21.67-25.6-41.414-38.584-58.656-38.584-10.475 0-21.18 4.627-32.682 14.141l-90.455 94.761z" fill="#353533" /><path d="M811.563 270.893c-64.903-45.373-125.09-56.363-170.463 8.508l-85.905 155.656c-32.769 71.814-53.574 140.609 11.241 185.982 64.904 45.424 120.215 10.83 175.214-51.268l114.406-130.523c45.372-64.822 20.333-122.951-44.493-168.355z" fill="#F08C3D" /><path d="M625.533 665.113h-0.016c-24.415 0-48.79-8.4-72.455-24.965-88.76-62.119-43.434-161.425-19.088-214.773l0.799-1.59 87.206-157.754c25.784-36.867 58.112-55.563 96.062-55.563 32.176 0 67.137 13.514 106.887 41.305 81.385 57 99.691 130.203 50.242 200.855l-1.578 1.998L759.186 585.15c-33.01 37.278-77.965 79.963-133.653 79.963z m-49.48-219.566c-39.158 86.072-38.141 127.044 3.764 156.38 15.896 11.119 30.846 16.527 45.711 16.527h0.006c28.54 0 59.883-20.383 98.65-64.15l113.486-129.47c13.276-19.039 48.68-73.082-39.487-134.832-31.198-21.809-58.169-32.875-80.142-32.875-22.143 0-40.313 11.025-57.137 34.67l-84.851 153.75z" fill="#353533" /><path d="M515.986 152.717c-85.764 0-146.014 27.676-146.014 113.422l20.469 191.539c15.533 84.07 39.781 158.056 125.545 158.056 85.74 0 113.398-65.086 123.635-154.339l20.441-186.887c0.001-85.748-58.335-121.791-144.076-121.791z" fill="#F08C3D" /><path d="M515.986 639.061c-115.752 0-137.045-115.232-148.49-177.142l-0.254-1.76-20.596-194.02c0-62.385 29.371-136.754 169.34-136.754 106.393 0 167.405 52.896 167.405 145.123l-0.136 2.537-20.444 186.889c-8.624 75.248-33.217 175.127-146.825 175.127zM413.534 454.307c18.955 101.939 45.813 138.095 102.452 138.095 61.262 0 89.432-37.477 100.459-133.666l20.293-185.498c-0.042-25.549-2.034-97.191-120.752-97.191-107.128 0-122.414 44.725-122.681 88.887l20.229 189.373z" fill="#353533" /></svg>