<?xml version="1.0" standalone="no"?><!DOCTYPE svg PUBLIC "-//W3C//DTD SVG 1.1//EN" "http://www.w3.org/Graphics/SVG/1.1/DTD/svg11.dtd"><svg class="icon" width="200px" height="200.00px" viewBox="0 0 1024 1024" version="1.1" xmlns="http://www.w3.org/2000/svg"><path d="M714.285 837.707c0 22.354-18.118 40.473-40.466 40.473h-321.75c-22.354 0-40.465-18.119-40.465-40.473l-56.67-275.582c0-22.354 18.127-40.48 40.473-40.48h435.066c22.361 0 40.48 18.126 40.48 40.48l-56.668 275.582z" fill="#F6D190" /><path d="M673.819 900.572h-321.75c-33.816 0-61.482-26.844-62.811-60.345L233.005 566.63a22.13 22.13 0 0 1-0.462-4.505c0-34.67 28.203-62.865 62.864-62.865h435.066c34.677 0 62.873 28.195 62.873 62.865a22.27 22.27 0 0 1-0.461 4.505L736.63 840.228c-1.32 33.501-28.987 60.344-62.811 60.344zM277.428 560.287l56.115 272.907c0.301 1.483 0.454 2.998 0.454 4.513 0 9.962 8.109 18.08 18.072 18.08h321.75c9.963 0 18.072-8.118 18.072-18.08 0-1.515 0.154-3.029 0.462-4.513l56.108-272.907c-0.916-9.108-8.634-16.242-17.988-16.242H295.407c-9.347 0-17.057 7.134-17.979 16.242z" fill="#353533" /><path d="M383.355 878.18l-44.515-319.1" fill="#F6D190" /><path d="M361.178 881.277l-44.515-319.098 44.355-6.189 44.522 319.091z" fill="#353533" /><path d="M455.191 878.18l-28.327-319.1" fill="#F6D190" /><path d="M432.892 880.155l-28.335-319.091 44.615-3.959 28.327 319.099z" fill="#353533" /><path d="M571.552 873.752l21.984-317.446" fill="#F6D190" /><path d="M593.89 875.297l-44.678-3.09 21.985-317.447 44.686 3.091z" fill="#353533" /><path d="M643.386 878.18l41.488-306.953" fill="#F6D190" /><path d="M665.579 881.177l-44.385-5.995 41.488-306.953 44.384 5.996z" fill="#353533" /><path d="M850.808 404.278c0-51.403-49.383-93.075-110.295-93.075-14.297 0-27.949 2.32-40.495 6.503-29.149-51.104-103.507-87.448-190.687-87.448-89.078 0-164.764 37.944-192.522 90.801-13.067-6.289-27.942-9.855-43.731-9.855-51.973 0-94.099 38.497-94.099 85.995 0 18.918 6.696 36.398 18.026 50.597-15.635 14.268-25.106 32.839-25.106 53.172 0 52.718 56.993 81.391 103.2 81.391 33.585 0 63.395-12.653 82.244-32.24 24.713 20.071 63.957 33.047 108.141 33.047 39.467 0 74.98-10.354 99.726-26.858 17.58 16.051 42.241 26.052 69.575 26.052 23.5 0 45.031-7.388 61.782-19.648 15.451 9.201 34.084 14.59 54.147 14.59 53.363 0 96.627-38.051 96.627-84.988 0-14.773-4.282-28.657-11.83-40.757 9.708-13.864 15.297-30.014 15.297-47.279z" fill="#DF4F7E" /><path d="M465.483 605.557c-40.125 0-77.915-9.731-106.619-27.097-22.814 16.873-52.379 26.29-83.766 26.29-60.405 0-125.6-39.674-125.6-103.783 0-19.817 6.749-38.967 19.279-55.409-8.018-14.921-12.191-31.348-12.191-48.359 0-59.768 52.257-108.396 116.49-108.396 11.699 0 23.367 1.66 34.515 4.873 37.989-51.995 116.014-85.818 201.739-85.818 85.573 0 161.959 32.517 200.495 84.059a151.742 151.742 0 0 1 30.687-3.113c73.158 0 132.688 51.804 132.688 115.476 0 16.665-4.113 33.047-11.984 48.052 5.604 12.645 8.525 26.244 8.525 39.98 0 59.206-53.396 107.373-119.027 107.373-18.533 0-36.59-3.828-52.964-11.169-18.78 10.538-40.665 16.235-62.966 16.235-26.112 0-50.903-7.511-71.366-21.408-27.597 14.403-61.728 22.214-97.935 22.214zM357.35 527.726c4.981 0 9.979 1.652 14.114 5.004 21.608 17.558 56.762 28.042 94.02 28.042 33.479 0 65.295-8.425 87.296-23.091a22.407 22.407 0 0 1 27.534 2.09c14.252 13.021 33.602 20.187 54.471 20.187 17.812 0 35.062-5.442 48.552-15.328a22.438 22.438 0 0 1 24.699-1.161c12.545 7.48 27.305 11.432 42.679 11.432 40.934 0 74.233-28.082 74.233-62.589 0-10.208-2.835-19.925-8.44-28.918a22.392 22.392 0 0 1 0.662-24.691c7.356-10.501 11.238-22.4 11.238-34.423 0-38.974-39.428-70.69-87.895-70.69-11.516 0-22.754 1.807-33.408 5.365a22.402 22.402 0 0 1-26.543-10.154c-25.975-45.547-94.79-76.148-171.23-76.148-78.547 0-147.938 31.679-172.697 78.815-5.604 10.67-18.657 14.998-29.534 9.771-10.394-5.005-22.154-7.648-34.022-7.648-39.543 0-71.705 28.534-71.705 63.61 0 13.191 4.55 25.86 13.145 36.629 7.349 9.225 6.295 22.569-2.414 30.518-8.133 7.411-17.818 19.779-17.818 36.622 0 38.496 46.938 58.99 80.814 58.99 26.098 0 50.819-9.485 66.108-25.367 4.372-4.554 10.245-6.867 16.141-6.867z" fill="#353533" /><path d="M584.512 334.533c0 39.565-32.079 71.659-71.651 71.659-39.582 0-71.667-32.094-71.667-71.659 0-39.58 32.085-71.667 71.667-71.667 39.572 0 71.651 32.087 71.651 71.667z" fill="#F1CA4E" /><path d="M512.86 428.585c-51.865 0-94.067-42.187-94.067-94.052 0-51.864 42.202-94.052 94.067-94.052 51.856 0 94.051 42.188 94.051 94.052 0 51.865-42.194 94.052-94.051 94.052z m0-143.318c-27.174 0-49.274 22.101-49.274 49.267S485.687 383.8 512.86 383.8c27.157 0 49.258-22.101 49.258-49.267s-22.1-49.266-49.258-49.266z" fill="#353533" /><path d="M497.939 286.835c-11.431 0-21.186-8.709-22.271-20.31-4.449-47.536-16.104-100.239-98.524-124.016-11.884-3.429-18.733-15.844-15.306-27.727 3.422-11.885 15.829-18.734 27.729-15.313 105.158 30.349 125.084 102.983 130.695 162.874 1.153 12.314-7.895 23.23-20.21 24.384-0.713 0.07-1.413 0.108-2.113 0.108z" fill="#353533" /></svg>