<?xml version="1.0" standalone="no"?><!DOCTYPE svg PUBLIC "-//W3C//DTD SVG 1.1//EN" "http://www.w3.org/Graphics/SVG/1.1/DTD/svg11.dtd"><svg class="icon" width="200px" height="200.00px" viewBox="0 0 1024 1024" version="1.1" xmlns="http://www.w3.org/2000/svg"><path d="M787.078 654.011c-90.594 0-164.299-73.706-164.299-164.29 0-90.592 73.705-164.297 164.299-164.297s164.289 73.705 164.289 164.297c0 90.584-73.695 164.29-164.289 164.29z m0-280.641c-64.158 0-116.342 52.192-116.342 116.351 0 64.151 52.184 116.344 116.342 116.344 64.15 0 116.335-52.192 116.335-116.344 0-64.158-52.184-116.351-116.335-116.351z" fill="#353533" /><path d="M247.262 349.398v359.099c0 22.041 17.856 39.906 39.906 39.906h444.887c22.039 0 39.906-17.865 39.906-39.906V349.398H247.262z" fill="#F6D190" /><path d="M732.055 772.378H287.168c-35.225 0-63.889-28.654-63.889-63.88v-359.1c0-13.242 10.739-23.975 23.982-23.975H771.96c13.234 0 23.973 10.732 23.973 23.975v359.1c0.001 35.226-28.663 63.88-63.878 63.88zM271.234 373.37v335.128c0 8.781 7.143 15.934 15.934 15.934h444.887c8.781 0 15.924-7.152 15.924-15.934V373.37H271.234zM387.352 300.109c-53.878 0-94.498-69.861-94.498-162.494 0-13.241 10.74-23.973 23.98-23.973 13.232 0 23.973 10.731 23.973 23.973 0 69.928 27.57 114.549 46.545 114.549 13.236 0 23.977 10.73 23.977 23.973s-10.741 23.972-23.977 23.972zM544.871 300.109c-53.872 0-94.494-69.861-94.494-162.494 0-13.241 10.734-23.973 23.975-23.973s23.973 10.731 23.973 23.973c0 69.928 27.57 114.549 46.547 114.549 13.238 0 23.973 10.73 23.973 23.973s-10.736 23.972-23.974 23.972zM687.088 300.109c-53.871 0-94.494-69.861-94.494-162.494 0-13.241 10.73-23.973 23.973-23.973s23.975 10.731 23.975 23.973c0 69.928 27.568 114.549 46.547 114.549 13.242 0 23.974 10.73 23.974 23.973s-10.733 23.972-23.975 23.972z" fill="#353533" /><path d="M766.251 858.455h-0.099l-516.913-2c-13.807-0.054-24.956-11.29-24.903-25.097 0.054-13.773 11.237-24.903 24.998-24.903h0.099l516.913 2c13.807 0.054 24.956 11.29 24.903 25.097-0.054 13.773-11.237 24.903-24.998 24.903z" fill="#353533" /></svg>