<?xml version="1.0" standalone="no"?><!DOCTYPE svg PUBLIC "-//W3C//DTD SVG 1.1//EN" "http://www.w3.org/Graphics/SVG/1.1/DTD/svg11.dtd"><svg t="1719387735509" class="icon" viewBox="0 0 1024 1024" version="1.1" xmlns="http://www.w3.org/2000/svg" p-id="3110" xmlns:xlink="http://www.w3.org/1999/xlink" width="200" height="200"><path d="M508.1088 508.14464m-492.96384 0a492.96384 492.96384 0 1 0 985.92768 0 492.96384 492.96384 0 1 0-985.92768 0Z" fill="#FF4F2A" p-id="3111"></path><path d="M508.1088 75.66336c238.85312 0 432.48128 193.62816 432.48128 432.48128 0 238.85312-193.62816 432.48128-432.48128 432.48128V75.66336z" fill="#FFE000" p-id="3112"></path><path d="M508.1088 75.66336c-238.85312 0-432.48128 193.62816-432.48128 432.48128 0 238.85312 193.62816 432.48128 432.48128 432.48128V75.66336z" fill="#FFB600" p-id="3113"></path><path d="M508.1088 207.17568S396.38016 219.8016 333.24032 331.35104 253.25568 533.4016 263.7824 604.95872c35.77856 197.84192 244.3264 204.15488 244.3264 204.15488V207.17568z" fill="#FFFABC" p-id="3114"></path><path d="M508.1088 207.17568s111.72864 12.62592 174.86848 124.17536 79.97952 202.05056 69.4528 273.60768c-35.77856 197.84192-244.3264 204.15488-244.3264 204.15488V207.17568z" fill="#FFFFFF" p-id="3115"></path><path d="M508.1088 508.14464c-57.5232 0-104.15104 46.62784-104.15104 104.15104s46.63296 104.15104 104.15104 104.15104V508.14464z" fill="#FF1A26" p-id="3116"></path><path d="M508.1088 508.14464c57.5232 0 104.15104 46.62784 104.15104 104.15104s-46.63296 104.15104-104.15104 104.15104V508.14464z" fill="#FF4F2A" p-id="3117"></path></svg>