<?xml version="1.0" standalone="no"?><!DOCTYPE svg PUBLIC "-//W3C//DTD SVG 1.1//EN" "http://www.w3.org/Graphics/SVG/1.1/DTD/svg11.dtd"><svg class="icon" width="200px" height="200.00px" viewBox="0 0 1024 1024" version="1.1" xmlns="http://www.w3.org/2000/svg"><path fill="#ffffff" d="M700.567467 86.122667c102.762667-24.576 187.733333 1.322667 248.256 56 52.842667 47.829333 83.370667 131.029333 73.322666 224.768-7.530667 70.357333-45.717333 141.781333-114.773333 216.064L534.914133 937.429333a35.84 35.84 0 0 1-49.301333-0.106666L116.055467 581.632c-54.677333-58.026667-89.6-113.152-104.085334-165.973333-21.141333-76.714667-13.973333-154.176 19.306667-217.258667 39.424-74.794667 118.058667-119.253333 232.042667-119.253333 77.930667 0 159.744 38.570667 246.016 113.706666 58.773333-54.570667 122.56-90.346667 191.232-106.730666m-190.058667 778.282666L856.6208 535.04c58.261333-62.762667 89.6-121.344 95.381333-175.36 7.744-72.448-14.848-134.101333-51.050666-166.826667-43.968-39.765333-105.258667-58.453333-183.68-39.722666-64.384 15.36-124.629333 52.224-181.162667 111.317333a35.84 35.84 0 0 1-50.218667 1.28c-83.84-79.146667-158.314667-117.504-222.570666-117.504-88.170667 0-142.336 30.570667-169.322667 81.813333-25.045333 47.424-30.570667 107.221333-13.930667 167.68 11.157333 40.704 40.256 86.634667 86.634667 135.936z" /></svg>