<?xml version="1.0" standalone="no"?><!DOCTYPE svg PUBLIC "-//W3C//DTD SVG 1.1//EN" "http://www.w3.org/Graphics/SVG/1.1/DTD/svg11.dtd"><svg class="icon" width="200px" height="200.00px" viewBox="0 0 1024 1024" version="1.1" xmlns="http://www.w3.org/2000/svg"><path fill="#ffffff" d="M930.75264 582.293333a35.84 35.84 0 0 1 35.84 35.84v300.757334c1.386667 41.578667-3.626667 68.864-22.208 86.016-17.322667 15.914667-42.410667 20.48-74.922667 18.730666H161.02464C128.043307 1021.994667 102.443307 1008.64 90.56064 981.653333c-7.893333-17.770667-11.562667-38.762667-11.562667-62.869333V618.090667a35.84 35.84 0 0 1 71.68 0v300.693333q0.106667 17.877333 3.584 28.778667l1.834667 5.013333-0.149333-0.512c0.042667-0.661333 1.536-0.426667 6.762666-0.106667H871.29664c12.544 0.725333 20.522667 0 23.338667-0.042666l0.213333-0.064c-0.661333-2.709333 0.618667-13.824 0-31.829334V618.090667a35.84 35.84 0 0 1 35.882667-35.84M534.27264 0c13.504 0 25.6 5.333333 36.949333 15.210667l441.6 416.704a35.84 35.84 0 1 1-49.237333 52.074666L532.629973 77.269333 59.32864 485.077333a35.84 35.84 0 0 1-46.848-54.272L496.107307 14.165333l4.416-3.264c10.965333-6.848 21.909333-10.858667 33.792-10.858666" /></svg>