<?xml version="1.0" standalone="no"?><!DOCTYPE svg PUBLIC "-//W3C//DTD SVG 1.1//EN" "http://www.w3.org/Graphics/SVG/1.1/DTD/svg11.dtd"><svg class="icon" width="200px" height="200.00px" viewBox="0 0 1024 1024" version="1.1" xmlns="http://www.w3.org/2000/svg"><path d="M725.333333 426.666667v469.333333l-213.333333-88.746667L298.666667 896V426.666667l213.333333 88.746666z" fill="#D19A0E" /><path d="M512 426.666667m-298.666667 0a298.666667 298.666667 0 1 0 597.333334 0 298.666667 298.666667 0 1 0-597.333334 0Z" fill="#FFFFFF" /><path d="M512 682.666667a256 256 0 1 0 0-512 256 256 0 0 0 0 512z m0 42.666666a298.666667 298.666667 0 1 1 0-597.333333 298.666667 298.666667 0 0 1 0 597.333333z" fill="#F5CF41" /><path d="M360.021333 301.098667l59.946667 76.288a8.533333 8.533333 0 0 0 13.44 0L505.301333 285.866667a8.533333 8.533333 0 0 1 13.44 0l71.808 91.52a8.533333 8.533333 0 0 0 13.44 0l60.074667-76.330667a8.533333 8.533333 0 0 1 11.989333-1.408 8.490667 8.490667 0 0 1 3.2 7.68l-24.96 214.357333H369.792l-24.96-214.314666a8.533333 8.533333 0 0 1 15.189333-6.272z" fill="#F5CF41" /><path d="M383.36 548.864h257.28c7.509333 0 13.568 6.058667 13.568 13.568v15.530667a13.568 13.568 0 0 1-13.568 13.568h-257.28a13.568 13.568 0 0 1-13.568-13.568v-15.530667c0-7.509333 6.058667-13.568 13.568-13.568z" fill="#FBE975" /></svg>