<?xml version="1.0" standalone="no"?><!DOCTYPE svg PUBLIC "-//W3C//DTD SVG 1.1//EN" "http://www.w3.org/Graphics/SVG/1.1/DTD/svg11.dtd"><svg class="icon" width="200px" height="200.00px" viewBox="0 0 1024 1024" version="1.1" xmlns="http://www.w3.org/2000/svg"><path d="M726.098 215.305H309.114c-10.554 0-19.104-8.559-19.104-19.104V134.42c0-10.559 8.551-19.111 19.104-19.111h416.983c10.546 0 19.104 8.553 19.104 19.111v61.781c0.001 10.545-8.557 19.104-19.103 19.104zM328.22 177.089h378.767v-23.564H328.22v23.564z" fill="#353533" /><path d="M603.324 448.437h-416.99l122.78-252.236h416.984z" fill="#5CC2E4" /><path d="M603.324 467.548h-416.99a19.115 19.115 0 0 1-16.199-8.973 19.11 19.11 0 0 1-0.977-18.494l122.772-252.25a19.111 19.111 0 0 1 17.184-10.742h416.983a19.12 19.12 0 0 1 16.199 8.978 19.094 19.094 0 0 1 0.977 18.489L620.5 456.805a19.107 19.107 0 0 1-17.176 10.743z m-386.441-38.209h374.484l104.181-214.034H321.064L216.883 429.339z" fill="#353533" /><path d="M603.508 799.285H186.334c-10.553 0-19.104-8.553-19.104-19.099v-331.75c0-10.546 8.551-19.098 19.104-19.098h417.174c10.553 0 19.104 8.552 19.104 19.098v331.75c0 10.546-8.551 19.099-19.104 19.099z m-398.069-38.21h378.963V467.548H205.439v293.527z" fill="#353533" /><path d="M830.822 799.285H533.988v-38.21h277.723V452.253L708.449 203.52l35.29-14.651 104.726 252.249a19.014 19.014 0 0 1 1.461 7.319v331.75c0 10.545-8.551 19.098-19.104 19.098z" fill="#353533" /><path d="M253.63 578.45c0.223 2.007 0.419 4.073 0.583 6.191 0.171 2.111 0.258 4.459 0.258 7.017 1.666-3.228 3.475-5.902 5.43-8.027 1.953-2.112 4.1-3.784 6.439-5.01a24.041 24.041 0 0 1 7.104-2.257c2.506-0.394 5.096-0.525 7.771-0.42 8.027 0.111 14.271 2.342 18.724 6.69 4.461 4.341 6.854 9.692 7.194 16.048 2.781-5.24 6.35-8.689 10.691-10.368 4.348-1.666 8.971-2.453 13.877-2.335 4.35 0.223 8.139 0.996 11.371 2.335 3.234 1.338 5.852 3.18 7.859 5.522 2.006 2.334 3.448 5.036 4.348 8.104 0.885 3.07 1.168 6.383 0.833 9.943a415.505 415.505 0 0 0-1.004 15.301 1968.83 1968.83 0 0 0-0.669 16.134c0 0.892-0.25 1.816-0.754 2.761-0.498 0.944-1.363 1.476-2.586 1.587-3.015 0.334-5.855 0.446-8.525 0.334-2.681-0.111-5.135-0.387-7.357-0.839-1.115-0.216-1.955-0.694-2.512-1.423-0.557-0.722-0.834-1.469-0.834-2.257 0.224-5.573 0.5-10.951 0.834-16.133 0.341-5.181 0.728-10.055 1.174-14.625a26.181 26.181 0 0 0-0.171-5.104c-0.223-1.717-0.833-3.37-1.837-4.932-0.897-1.442-2.203-2.644-3.928-3.594-1.732-0.945-4.046-1.47-6.938-1.587-3.456-0.328-6.329 0.537-8.604 2.598-2.289 2.058-4.217 4.538-5.772 7.437a439.17 439.17 0 0 0-0.754 16.212c-0.163 5.799-0.308 11.202-0.419 16.219 0 0.899-0.309 1.818-0.918 2.762-0.616 0.944-1.535 1.476-2.756 1.588-3.24 0.334-6.052 0.524-8.447 0.583a42.644 42.644 0 0 1-7.102-0.42c-1.233-0.334-2.086-0.859-2.59-1.587-0.5-0.722-0.756-1.423-0.756-2.092 0.112-6.683 0.335-13.006 0.67-18.967 0.334-5.969 0.722-12.344 1.167-19.151 0.112-1.666 0.06-3.364-0.163-5.096a13.235 13.235 0 0 0-1.674-4.925c-1.002-1.456-2.367-2.65-4.092-3.594-1.731-0.951-3.986-1.482-6.774-1.595-3.673-0.111-7.103 0.978-10.284 3.26-3.175 2.282-5.541 4.762-7.104 7.438 0.223 3.909 0.388 7.831 0.499 11.791l0.335 11.78c0.117 3.909 0.197 7.666 0.256 11.286 0.053 3.627 0.19 7.162 0.414 10.618 0 2.454-1.031 3.961-3.09 4.513-2.067 0.564-4.375 0.892-6.938 1.003a54.69 54.69 0 0 1-4.179 0.164c-1.338 0-2.734 0.065-4.184 0.172-0.997 0-1.896-0.139-2.67-0.421-0.786-0.275-1.174-1.023-1.174-2.256-0.111-6.349-0.223-12.343-0.334-17.971a676.517 676.517 0 0 0-0.506-16.297 722.365 722.365 0 0 0-0.832-15.885c-0.328-5.24-0.721-10.972-1.168-17.216-0.229-1.232 0.054-2.033 0.84-2.426 0.773-0.395 1.502-0.756 2.17-1.09 1.896-0.446 4.369-0.747 7.438-0.918 3.063-0.171 5.824-0.196 8.277-0.079 2.229 0.003 3.508 1.171 3.843 3.506z" fill="#5CC2E4" /><path d="M237.837 651.891h-0.091c-1.272 0-2.44-0.184-3.477-0.551-0.82-0.295-2.754-1.325-2.754-4.512l-0.335-17.924a709.752 709.752 0 0 0-0.506-16.245 675.822 675.822 0 0 0-0.825-15.833c-0.335-5.233-0.729-10.965-1.174-17.196-0.557-2.99 1.317-4.315 2.157-4.734l2.695-1.272c2.026-0.479 4.663-0.813 7.851-0.983 3.155-0.171 5.988-0.197 8.513-0.079h0.007c3.325 0 5.588 2.021 6.1 5.556 0.21 1.921 0.394 3.837 0.558 5.776a28.128 28.128 0 0 1 1.594-1.874c2.125-2.309 4.511-4.166 7.076-5.51a26.541 26.541 0 0 1 7.851-2.505 42.97 42.97 0 0 1 8.236-0.445c8.559 0.117 15.406 2.597 20.292 7.364 3.353 3.271 5.661 7.089 6.894 11.404 2.426-2.911 5.266-5.004 8.473-6.243 4.329-1.667 8.979-2.505 13.824-2.505l0.96 0.007c4.675 0.242 8.769 1.095 12.229 2.523 3.568 1.47 6.513 3.549 8.764 6.166 2.209 2.584 3.836 5.614 4.82 8.998 0.969 3.352 1.277 6.991 0.925 10.835a401.568 401.568 0 0 0-0.997 15.188c-0.223 4.84-0.446 10.211-0.669 16.114 0 1.2-0.343 2.506-1.03 3.79-0.865 1.646-2.466 2.656-4.486 2.841-3.063 0.341-6.079 0.459-8.834 0.341-2.787-0.111-5.391-0.407-7.732-0.878-1.691-0.336-3.017-1.116-3.936-2.31-0.879-1.134-1.324-2.387-1.324-3.713 0.23-5.685 0.505-11.083 0.84-16.284 0.334-5.213 0.729-10.106 1.174-14.71a23.24 23.24 0 0 0-0.158-4.553c-0.176-1.389-0.662-2.682-1.475-3.953-0.709-1.135-1.705-2.041-3.07-2.788-1.39-0.761-3.376-1.193-5.882-1.299a15.5 15.5 0 0 0-1.319-0.065c-2.242 0-4.07 0.67-5.6 2.047-1.954 1.771-3.647 3.909-5.023 6.349a458.137 458.137 0 0 0-0.709 15.603c-0.164 5.79-0.308 11.194-0.419 16.205 0 1.299-0.434 2.663-1.3 3.995-1.023 1.581-2.596 2.498-4.552 2.669-3.259 0.341-6.163 0.537-8.598 0.603l-1.081 0.007a45.43 45.43 0 0 1-6.422-0.452c-2.06-0.539-3.385-1.397-4.217-2.597-0.773-1.129-1.174-2.29-1.174-3.45 0.105-6.683 0.334-13.098 0.676-19.105 0.334-5.968 0.722-12.362 1.168-19.17a23.513 23.513 0 0 0-0.152-4.63 10.99 10.99 0 0 0-1.377-4.053c-0.675-0.958-1.777-1.922-3.168-2.689-1.396-0.761-3.325-1.193-5.725-1.291h-0.025c-3.404 0-6.134 0.924-8.764 2.813-2.648 1.902-4.688 3.962-6.072 6.112 0.203 3.673 0.354 7.378 0.465 11.11l0.334 11.778c0.111 3.909 0.191 7.687 0.25 11.313 0.059 3.588 0.189 7.089 0.412 10.5 0 4.952-3.041 6.486-4.859 6.979-2.217 0.604-4.721 0.964-7.45 1.082-2.747 0.216-5.397 0.111-8.283 0.327l-0.094 0.006z m-1.566-4.932a5.98 5.98 0 0 0 1.396 0.157c2.848-0.216 5.385-0.104 8.258-0.327 2.46-0.105 4.617-0.42 6.493-0.933 0.728-0.196 1.331-0.491 1.331-2.203a210.172 210.172 0 0 1-0.413-10.578c-0.06-3.614-0.144-7.366-0.256-11.254l-0.334-11.785c-0.085-3.07-0.203-6.114-0.36-9.144l-0.309 0.59v-9.824c0-2.492-0.078-4.768-0.242-6.834a207.075 207.075 0 0 0-0.577-6.111c-0.179-1.246-0.585-1.378-1.47-1.378-2.65-0.118-5.174-0.078-8.146 0.072-2.76 0.15-5.035 0.427-6.754 0.807l-1.47 0.734 0.026 0.341c0.445 6.244 0.839 11.989 1.174 17.236 0.334 5.26 0.611 10.565 0.84 15.937 0.224 5.247 0.387 10.703 0.499 16.344l0.339 17.983a0.543 0.543 0 0 1-0.025 0.17z m83.323-51.903c0.531 0 1.076 0.026 1.641 0.079 3.168 0.117 5.777 0.734 7.851 1.862 2.085 1.153 3.706 2.638 4.813 4.44a14.26 14.26 0 0 1 2.184 5.883c0.244 1.875 0.303 3.744 0.178 5.562a450.125 450.125 0 0 0-1.168 14.625 665.053 665.053 0 0 0-0.833 16.075c0 0.059 0.032 0.308 0.335 0.7 0.195 0.251 0.563 0.435 1.09 0.539 2.098 0.419 4.453 0.688 6.99 0.793 2.551 0.1 5.28 0 8.158-0.321 0.598-0.053 0.684-0.21 0.741-0.328 0.321-0.603 0.479-1.147 0.479-1.646 0.223-6.001 0.446-11.393 0.677-16.245 0.216-4.873 0.557-10.002 1.009-15.386 0.302-3.267 0.046-6.316-0.753-9.084-0.794-2.721-2.094-5.148-3.863-7.221-1.752-2.04-4.093-3.673-6.966-4.859-2.958-1.226-6.519-1.955-10.577-2.164l-0.783-0.007c-4.256 0-8.327 0.734-12.113 2.19-3.77 1.455-6.943 4.564-9.443 9.26l-0.059 0.104a26.504 26.504 0 0 1 1.619-1.579c2.406-2.17 5.364-3.272 8.793-3.272z m-48.079-9.969l0.578 0.007c3.166 0.124 5.804 0.762 7.851 1.882 2.045 1.128 3.699 2.577 4.912 4.329 1.146 1.994 1.81 3.947 2.072 5.98 0.243 1.876 0.301 3.752 0.184 5.563-0.446 6.794-0.834 13.17-1.175 19.124-0.335 5.941-0.551 12.29-0.662 18.875 0 0.026 0.026 0.256 0.327 0.694 0.079 0.112 0.354 0.395 1.252 0.643 1.602 0.211 3.53 0.349 5.459 0.349l0.97-0.014c2.309-0.052 5.082-0.241 8.257-0.57 0.65-0.064 0.847-0.289 0.998-0.512 0.347-0.551 0.53-1.043 0.53-1.463 0.111-5.069 0.249-10.486 0.421-16.284 0.17-5.824 0.42-11.26 0.754-16.304l0.281-0.971c0.184-0.349 0.374-0.689 0.57-1.023l-0.348-6.584c-0.308-5.785-2.427-10.513-6.473-14.468-3.982-3.883-9.732-5.902-17.092-6.008-2.82-0.118-5.036 0.026-7.371 0.394a21.7 21.7 0 0 0-6.401 2.033c-2.053 1.076-3.994 2.59-5.752 4.499-1.455 1.574-2.846 3.528-4.157 5.817a35.403 35.403 0 0 1 2.846-2.276c3.431-2.465 7.189-3.712 11.169-3.712zM394.399 575.275c-3.573 0-6.769-1.141-9.614-3.424-2.84-2.281-4.262-5.711-4.262-10.283 0-1.227 0.274-2.597 0.838-4.093 0.551-1.507 1.443-2.925 2.67-4.27 1.227-1.227 2.675-2.341 4.349-3.338 1.671-1.01 3.79-1.508 6.354-1.508 3.45 0 6.599 1.233 9.444 3.673 2.84 2.459 4.264 5.633 4.264 9.535 0 2.007-0.446 3.844-1.338 5.516-0.898 1.673-1.947 3.122-3.174 4.348-2.907 2.566-6.08 3.844-9.531 3.844z m11.033 18.889c0.557 7.477 1.089 15.413 1.586 23.826 0.506 8.415 0.807 16.744 0.918 24.994 0 2.676-0.97 4.289-2.924 4.847-1.948 0.558-4.315 0.899-7.104 1.004a32.527 32.527 0 0 1-4.178 0.419c-1.448 0.053-2.904 0.145-4.348 0.251-0.899 0-1.752-0.251-2.592-0.749-0.839-0.504-1.252-1.2-1.252-2.099l-0.504-15.543c-0.224-4.683-0.42-9.3-0.584-13.878-0.164-4.564-0.42-9.358-0.755-14.376a185.642 185.642 0 0 1-0.165-8.027c0-2.78-0.281-5.68-0.839-8.689-0.111-0.439 0.224-0.919 1.004-1.424a4.58 4.58 0 0 1 2.512-0.748c3.45 0 6.88 0.165 10.276 0.499 3.406 0.334 6.545 1.114 9.445 2.342 2.898 1.449 3.293 3.181 1.174 5.18l-1.67 2.171z" fill="#5CC2E4" /><path d="M389.468 651.891h-0.085c-1.318 0-2.609-0.367-3.824-1.088-1.555-0.932-2.406-2.407-2.406-4.146l-0.505-15.465c-0.224-4.656-0.419-9.287-0.585-13.864a440.628 440.628 0 0 0-0.754-14.311c-0.111-2.65-0.163-5.351-0.163-8.185 0-2.623-0.269-5.404-0.801-8.251-0.188-0.721-0.216-2.399 2.06-3.869a6.959 6.959 0 0 1 3.804-1.127c3.503 0 7.044 0.169 10.513 0.51 3.615 0.355 7.031 1.201 10.139 2.52 2.402 1.193 3.675 2.636 3.93 4.367 0.242 1.641-0.446 3.232-2.045 4.749l-0.86 1.154c0.53 7.214 1.036 14.874 1.521 22.968 0.499 8.342 0.807 16.789 0.919 25.099 0 5.09-2.912 6.683-4.65 7.182-2.119 0.604-4.702 0.97-7.674 1.088-1.134 0.21-2.629 0.36-4.184 0.42-1.41 0.052-2.834 0.138-4.25 0.242l-0.1 0.007z m-4.269-65.283c0.484 2.894 0.721 5.62 0.721 8.225 0 2.754 0.053 5.392 0.164 7.923 0.334 4.983 0.583 9.805 0.754 14.396 0.163 4.565 0.359 9.175 0.582 13.845l0.506 15.59c0.531 0.373 0.945 0.518 1.385 0.53 1.436-0.104 2.879-0.189 4.322-0.249a31.83 31.83 0 0 0 3.883-0.387c2.885-0.138 5.088-0.439 6.84-0.945 0.42-0.117 1.193-0.34 1.193-2.551a545.423 545.423 0 0 0-0.912-24.855c-0.497-8.396-1.029-16.33-1.586-23.781l-0.066-0.911 2.224-2.893c0.505-0.512 0.716-0.793 0.807-0.931-0.124-0.041-0.439-0.309-1.147-0.663-2.539-1.069-5.477-1.791-8.611-2.105a104.733 104.733 0 0 0-10.048-0.485 2.075 2.075 0 0 0-1.011 0.247z m9.2-8.944c-4.105 0-7.845-1.332-11.117-3.955-3.416-2.749-5.154-6.828-5.154-12.141 0-1.508 0.335-3.167 0.991-4.932 0.655-1.784 1.725-3.475 3.154-5.043 1.438-1.437 3.057-2.683 4.879-3.777 2.033-1.227 4.586-1.845 7.581-1.845 4.021 0 7.726 1.431 11.006 4.251 3.378 2.925 5.089 6.743 5.089 11.346 0 2.388-0.545 4.624-1.619 6.638-1.011 1.889-2.225 3.541-3.594 4.918-3.443 3.043-7.176 4.54-11.216 4.54z m0.334-26.917c-2.111 0-3.843 0.394-5.121 1.168-1.495 0.892-2.808 1.896-3.89 2.983-0.938 1.03-1.678 2.197-2.123 3.397-0.461 1.239-0.689 2.335-0.689 3.272 0 3.844 1.101 6.599 3.37 8.422 4.734 3.797 10.992 4.139 16.067-0.348 0.932-0.945 1.864-2.217 2.65-3.686 0.709-1.332 1.056-2.769 1.056-4.389 0-3.2-1.12-5.731-3.436-7.725-2.419-2.084-5.004-3.094-7.884-3.094z" fill="#5CC2E4" /><path d="M455.418 557.726a512.729 512.729 0 0 0 1.006 19.556c0.334 6.349 0.635 12.901 0.917 19.643 0.275 6.749 0.531 13.904 0.754 21.479 0.224 3.791 0.335 7.752 0.335 11.877s0.052 8.52 0.163 13.201c0 1.234-0.274 2.205-0.832 2.926a4.787 4.787 0 0 1-2.171 1.593c-0.899 0.336-1.987 0.585-3.266 0.755-1.28 0.164-2.592 0.302-3.922 0.413a157.5 157.5 0 0 1-4.434 0.256c-1.398 0.053-2.874 0.08-4.434 0.08-2.23 0-3.346-0.893-3.346-2.677a3096.912 3096.912 0 0 0-1.337-49.148 4614.882 4614.882 0 0 0-2.008-49.654c-0.112-1.227 0.197-2.065 0.925-2.512 0.721-0.439 1.477-0.669 2.258-0.669 3.232 0 6.766 0.394 10.616 1.175 3.843 0.779 7.215 1.783 10.114 3.01 1.337 0.78 2.143 1.81 2.42 3.096 0.28 1.279-0.191 2.531-1.417 3.757l-2.341 1.843z" fill="#5CC2E4" /><path d="M439.535 651.891c-4.224 0-5.732-2.61-5.732-5.063-0.328-16.593-0.78-33.113-1.338-49.069a5035.186 5035.186 0 0 0-2-49.621c-0.256-2.78 1.18-4.119 2.059-4.657 1.096-0.676 2.275-1.022 3.504-1.022 3.369 0 7.101 0.413 11.09 1.22 3.974 0.813 7.534 1.868 10.571 3.147 2.177 1.252 3.404 2.86 3.823 4.788 0.314 1.457 0.217 3.673-2.059 5.954l-1.607 1.279c0.105 2.919 0.236 5.791 0.373 8.617 0.164 3.221 0.361 6.435 0.584 9.648 0.342 6.407 0.643 12.966 0.926 19.714 0.273 6.755 0.53 13.924 0.754 21.513 0.216 3.751 0.334 7.79 0.334 11.942 0 4.098 0.061 8.486 0.172 13.149 0 1.81-0.454 3.286-1.334 4.433-0.831 1.083-1.914 1.876-3.225 2.375-1.076 0.394-2.349 0.695-3.797 0.879a97.67 97.67 0 0 1-4.033 0.433c-1.621 0.118-3.123 0.196-4.532 0.256-1.423 0.058-2.933 0.085-4.533 0.085z m-4.342-104.435c0.02 0.051 0.014 0.176 0.031 0.354 0.789 17.28 1.465 33.841 2.016 49.784a3085.004 3085.004 0 0 1 1.336 49.188c-0.064 0.184 0.184 0.334 0.959 0.334 1.521 0 2.971-0.026 4.334-0.078 1.365-0.06 2.82-0.138 4.355-0.249a79.458 79.458 0 0 0 3.797-0.406c1.083-0.145 2-0.348 2.729-0.618 0.472-0.183 0.833-0.438 1.123-0.813 0.273-0.36 0.334-0.997 0.334-1.47a554.566 554.566 0 0 1-0.165-13.201c0-4.06-0.111-8.008-0.335-11.732a1969.35 1969.35 0 0 0-0.754-21.525 1649.54 1649.54 0 0 0-0.912-19.616 518.733 518.733 0 0 1-0.59-9.7 474.02 474.02 0 0 1-0.419-9.903l-0.039-1.213 3.292-2.585c0.701-0.727 0.598-1.213 0.564-1.376-0.086-0.387-0.314-0.965-1.299-1.542-2.466-1.022-5.719-1.98-9.386-2.728-3.68-0.748-7.089-1.122-10.138-1.122-0.282-0.001-0.544 0.072-0.833 0.217z" fill="#5CC2E4" /><path d="M553.887 584.805a115.697 115.697 0 0 1-4.84 3.929 280.109 280.109 0 0 0-5.023 3.936 173.66 173.66 0 0 0-5.012 4.171 188.374 188.374 0 0 0-4.846 4.348c5.901 7.137 11.031 13.57 15.38 19.315 4.341 5.737 8.132 10.893 11.366 15.465 1.226 1.999 1.199 3.79-0.086 5.345-1.287 1.561-3.09 3.174-5.432 4.847-2.34 1.672-4.57 2.958-6.688 3.843-1.229 0.446-2.506 0.67-3.844 0.67-1.34 0-2.453-0.604-3.346-1.837a1656.32 1656.32 0 0 1-5.771-8.696 1249.835 1249.835 0 0 0-5.509-8.27 368.253 368.253 0 0 0-5.685-8.192 310.772 310.772 0 0 0-6.271-8.447 35.545 35.545 0 0 0-3.516 2.926 173.261 173.261 0 0 1-3.338 3.095 99.182 99.182 0 0 0-3.345 3.175 43.722 43.722 0 0 1-3.345 3.01v11.707c0 1.338 0.06 2.788 0.172 4.341 0 1.234-0.283 2.205-0.841 2.926a4.787 4.787 0 0 1-2.171 1.593c-0.898 0.336-1.954 0.585-3.174 0.755a72.437 72.437 0 0 1-4.014 0.413c-1.449 0.111-2.906 0.197-4.349 0.256-1.45 0.053-2.897 0.08-4.349 0.08-2.229 0-3.345-0.893-3.345-2.677-0.224-8.027-0.413-15.852-0.583-23.486-0.164-7.633-0.42-15.353-0.754-23.157a3510.54 3510.54 0 0 1-0.918-23.236c-0.283-7.798-0.637-16.049-1.09-24.746-0.223-1.219 0.059-2.058 0.841-2.504 0.773-0.446 1.501-0.669 2.177-0.669 3.227 0 6.768 0.393 10.61 1.167 3.851 0.787 7.215 1.783 10.113 3.01 1.339 0.781 2.146 1.817 2.427 3.097 0.275 1.278-0.195 2.537-1.423 3.758l-2.171 1.843c0.105 5.239 0.302 10.172 0.584 14.789 0.275 4.63 0.523 9.287 0.754 13.963 0.334 4.683 0.609 9.391 0.833 14.127 0.223 4.741 0.388 9.896 0.499 15.465 7.246-6.684 14.914-13.426 22.994-20.228 8.072-6.8 15.68-13.096 22.815-18.894 1.562-0.997 2.788-0.892 3.68 0.334 0.446 0.453 0.669 1.004 0.669 1.673 0.005 0.665-0.278 1.228-0.835 1.667z" fill="#5CC2E4" /><path d="M544.863 653.064c-1.477 0-3.581-0.491-5.281-2.826l-5.822-8.774a1429.346 1429.346 0 0 0-5.503-8.265 382.71 382.71 0 0 0-5.653-8.139 310.622 310.622 0 0 0-4.755-6.46c-0.485 0.42-0.97 0.846-1.436 1.285a170.423 170.423 0 0 1-3.384 3.135 90.699 90.699 0 0 0-3.254 3.097 45.902 45.902 0 0 1-2.65 2.439v10.585c0 1.286 0.061 2.677 0.164 4.171 0.008 1.928-0.439 3.404-1.324 4.551-0.832 1.083-1.915 1.876-3.221 2.375-1.075 0.394-2.314 0.695-3.698 0.879-1.272 0.17-2.657 0.314-4.152 0.433-1.481 0.118-2.957 0.196-4.44 0.256-1.475 0.059-2.957 0.085-4.439 0.085-4.223 0-5.732-2.61-5.732-5.063-0.223-7.962-0.412-15.793-0.583-23.434-0.171-7.614-0.421-15.32-0.755-23.104-0.334-7.7-0.643-15.452-0.918-23.256-0.281-7.791-0.635-16.029-1.081-24.706-0.544-2.859 1.245-4.258 2.038-4.703 1.129-0.655 2.264-0.983 3.359-0.983 3.364 0 7.096 0.406 11.084 1.22 3.973 0.807 7.535 1.863 10.571 3.148 2.177 1.246 3.403 2.859 3.823 4.78 0.32 1.463 0.223 3.68-2.059 5.963l-1.449 1.232c0.111 4.788 0.295 9.313 0.551 13.563 0.282 4.644 0.531 9.301 0.754 13.996 0.334 4.643 0.616 9.378 0.84 14.127 0.15 3.233 0.274 6.649 0.373 10.271a693.037 693.037 0 0 1 19.19-16.75 1739.498 1739.498 0 0 1 22.851-18.915c3.146-2.072 5.514-1.411 7.113 0.774 0.656 0.629 1.13 1.79 1.13 3.082 0 1.391-0.617 2.643-1.732 3.541a116.033 116.033 0 0 1-4.886 3.955 320.952 320.952 0 0 0-4.977 3.902 159.273 159.273 0 0 0-4.946 4.119 183.132 183.132 0 0 0-3.128 2.767c5.299 6.44 10.008 12.37 14.002 17.643 4.368 5.759 8.166 10.94 11.411 15.524 1.85 3.01 1.751 5.889-0.19 8.243-1.422 1.738-3.352 3.464-5.881 5.272-2.48 1.771-4.881 3.155-7.15 4.105a13.69 13.69 0 0 1-4.775 0.86z m-26.109-41.132l1.424 1.842a310.875 310.875 0 0 1 6.314 8.514 375.207 375.207 0 0 1 5.719 8.243 926.375 926.375 0 0 1 5.529 8.297l5.764 8.683c0.493 0.675 0.952 0.774 1.359 0.774a8.742 8.742 0 0 0 3.029-0.525c1.83-0.773 3.929-1.98 6.113-3.541 2.164-1.548 3.836-3.03 4.971-4.42 0.432-0.519 0.773-1.148-0.105-2.585-3.129-4.42-6.904-9.556-11.234-15.273-4.31-5.687-9.463-12.159-15.314-19.224l-1.436-1.744 1.653-1.535a197.154 197.154 0 0 1 4.905-4.394 167.379 167.379 0 0 1 5.089-4.243 304.242 304.242 0 0 1 5.056-3.962 113.741 113.741 0 0 0 4.75-3.85c-0.053-0.145-0.236-0.131-0.67 0.15a1889.527 1889.527 0 0 0-22.573 18.711 670.998 670.998 0 0 0-22.909 20.147l-3.896 3.607-0.111-5.312a606.126 606.126 0 0 0-0.491-15.399 621.927 621.927 0 0 0-0.834-14.074c-0.229-4.722-0.479-9.359-0.761-13.982a379.99 379.99 0 0 1-0.585-14.888l-0.025-1.135 3.043-2.577c0.769-0.781 0.662-1.265 0.63-1.43-0.085-0.381-0.315-0.957-1.298-1.534-2.466-1.023-5.719-1.987-9.386-2.729-3.673-0.748-7.083-1.129-10.132-1.129-0.092 0-0.309 0.026-0.662 0.185l0.032 0.483c0.446 8.704 0.806 16.961 1.088 24.779 0.282 7.798 0.591 15.53 0.918 23.217 0.337 7.824 0.592 15.556 0.756 23.203 0.171 7.634 0.36 15.465 0.583 23.479-0.064 0.203 0.178 0.354 0.957 0.354 1.416 0 2.834-0.026 4.25-0.078 1.416-0.06 2.84-0.138 4.256-0.249a63.14 63.14 0 0 0 3.883-0.406c1.029-0.139 1.93-0.348 2.662-0.618 0.467-0.183 0.828-0.438 1.116-0.813 0.274-0.36 0.341-0.997 0.341-1.47a54.272 54.272 0 0 1-0.17-4.341v-12.841l0.877-0.716a42.686 42.686 0 0 0 3.169-2.846 90.393 90.393 0 0 1 3.424-3.26c1.101-0.99 2.196-2.007 3.298-3.058a38.693 38.693 0 0 1 3.76-3.121l1.874-1.366z" fill="#5CC2E4" /></svg>