<?xml version="1.0" standalone="no"?><!DOCTYPE svg PUBLIC "-//W3C//DTD SVG 1.1//EN" "http://www.w3.org/Graphics/SVG/1.1/DTD/svg11.dtd"><svg class="icon" width="200px" height="200.00px" viewBox="0 0 1024 1024" version="1.1" xmlns="http://www.w3.org/2000/svg"><path d="M736.576 152.365C587.398 270.232 587.398 620.979 587.398 620.979l71.519 59.986v228.357h78.344V620.979h-0.685s1.53-398.485 0-468.614z" fill="#B4B4B5" /><path d="M737.261 928.89h-78.344c-10.809 0-19.567-8.76-19.567-19.567v-219.23l-64.526-54.121a19.574 19.574 0 0 1-6.992-14.993c0-14.71 1.781-361.629 156.613-483.968a19.578 19.578 0 0 1 20.467-2.352 19.569 19.569 0 0 1 11.224 17.276c1.45 66.084 0.208 415.123 0.026 463.973a19.62 19.62 0 0 1 0.659 5.07v288.344c-0.001 10.808-8.761 19.568-19.56 19.568z m-58.776-39.142h39.201V626.104a19.835 19.835 0 0 1-0.686-5.199c0.013-3.427 1.128-296.665 0.477-422.278-98.12 118.996-109.135 363.408-110.356 413.352l64.378 53.992a19.59 19.59 0 0 1 6.986 14.994v208.783z" fill="#353533" /><path d="M448.15 154.366v178.687c0 6.36-5.172 11.525-11.54 11.525h-28.439c-6.368 0-11.529-5.165-11.529-11.525V154.24h-54.597v173.225c0 6.373-5.157 11.531-11.533 11.531h-28.44c-6.375 0-11.54-5.158-11.54-11.531v-173.09c-27.131 1.329-48.728 23.684-48.728 51.138v187.405c0 28.305 22.954 51.265 51.273 51.265h37.629v460.525h78.337V444.183h36.568c28.319 0 51.272-22.96 51.272-51.265V205.513c0.001-27.454-21.602-49.809-48.733-51.147z" fill="#B4B4B5" /><path d="M409.043 924.274h-78.337c-10.808 0-19.573-8.759-19.573-19.566V463.749h-18.056c-39.067 0-70.84-31.779-70.84-70.831V205.513c0-37.786 29.576-68.833 67.333-70.687 5.388-0.248 10.581 1.687 14.456 5.382a19.537 19.537 0 0 1 6.072 14.167v165.056h12.381V154.24c0-10.809 8.765-19.568 19.565-19.568h54.597c10.803 0 19.57 8.76 19.57 19.568v170.771h12.365V154.366a19.602 19.602 0 0 1 6.078-14.171c3.878-3.688 9.09-5.617 14.456-5.369 37.765 1.854 67.341 32.9 67.341 70.687v187.405c0 39.052-31.781 70.831-70.841 70.831h-16.995v440.959c0.001 10.808-8.764 19.566-19.572 19.566z m-58.769-39.14h39.199V444.183c0-10.809 8.768-19.574 19.569-19.574h36.568c17.479 0 31.706-14.214 31.706-31.69V205.513c0-8.887-3.668-16.94-9.601-22.698v150.238c0 17.148-13.95 31.094-31.106 31.094H408.17c-17.149 0-31.102-13.945-31.102-31.094V173.808H361.62v153.657c0 17.154-13.959 31.107-31.108 31.107h-28.44c-17.149 0-31.107-13.953-31.107-31.107V182.822a31.518 31.518 0 0 0-9.592 22.69v187.405c0 17.477 14.227 31.69 31.705 31.69h37.629c10.808 0 19.568 8.766 19.568 19.574v440.953z" fill="#353533" /></svg>