<?xml version="1.0" standalone="no"?><!DOCTYPE svg PUBLIC "-//W3C//DTD SVG 1.1//EN" "http://www.w3.org/Graphics/SVG/1.1/DTD/svg11.dtd"><svg class="icon" width="200px" height="200.00px" viewBox="0 0 1024 1024" version="1.1" xmlns="http://www.w3.org/2000/svg"><path fill="#ffffff" d="M511.596951 541.275259a230.375283 230.375283 0 1 0 0-460.750565 230.375283 230.375283 0 0 0 0 460.750565M511.959579 0a307.167044 307.167044 0 0 1 155.631302 572.055956c188.801077 56.825903 330.631193 215.934165 356.057798 413.544964 2.410408 18.771319-11.561426 35.836155-31.228649 38.139908-19.624561 2.303753-37.542639-11.006819-39.931716-29.79947-27.645034-214.504985-213.438433-376.023656-438.736927-376.023655-226.535695 0-414.718171 161.817305-442.320543 376.023655-2.410408 18.771319-20.328486 32.103222-39.931715 29.79947-19.667223-2.303753-33.639057-19.347258-31.22865-38.139908 25.383943-196.800218 167.960646-355.69517 357.081688-413.033018A307.167044 307.167044 0 0 1 511.959579 0" /></svg>